<?xml version="1.0" encoding="UTF-8"?>
<!DOCTYPE svg PUBLIC "-//W3C//DTD SVG 1.1//EN" "http://www.w3.org/Graphics/SVG/1.1/DTD/svg11.dtd">
<!-- Creator: CorelDRAW 2021.5 -->
<svg xmlns="http://www.w3.org/2000/svg" xml:space="preserve" width="94mm" height="24mm" version="1.1" style="shape-rendering:geometricPrecision; text-rendering:geometricPrecision; image-rendering:optimizeQuality; fill-rule:evenodd; clip-rule:evenodd"
viewBox="0 0 9400 2400"
 xmlns:xlink="http://www.w3.org/1999/xlink"
 xmlns:xodm="http://www.corel.com/coreldraw/odm/2003">
 <defs>
  <style type="text/css">
   <![CDATA[
    .fil0 {fill:black;fill-rule:nonzero}
    .fil2 {fill:#00C1FF;fill-rule:nonzero}
    .fil1 {fill:white;fill-rule:nonzero}
    .fil6 {fill:url(#id0);fill-rule:nonzero}
    .fil5 {fill:url(#id1);fill-rule:nonzero}
    .fil4 {fill:url(#id2);fill-rule:nonzero}
    .fil11 {fill:url(#id3);fill-rule:nonzero}
    .fil8 {fill:url(#id4);fill-rule:nonzero}
    .fil10 {fill:url(#id5);fill-rule:nonzero}
    .fil9 {fill:url(#id6);fill-rule:nonzero}
    .fil3 {fill:url(#id7);fill-rule:nonzero}
    .fil12 {fill:url(#id8);fill-rule:nonzero}
    .fil7 {fill:url(#id9);fill-rule:nonzero}
   ]]>
  </style>
  <linearGradient id="id0" gradientUnits="userSpaceOnUse" x1="1042.54" y1="95.7" x2="1581.93" y2="559.45">
   <stop offset="0" style="stop-opacity:1; stop-color:#32A071"/>
   <stop offset="0.0705882" style="stop-opacity:1; stop-color:#2DA771"/>
   <stop offset="0.470588" style="stop-opacity:1; stop-color:#15CF74"/>
   <stop offset="0.8" style="stop-opacity:1; stop-color:#06E775"/>
   <stop offset="1" style="stop-opacity:1; stop-color:#00F076"/>
  </linearGradient>
  <linearGradient id="id1" gradientUnits="userSpaceOnUse" x1="1980.31" y1="1389.62" x2="766.66" y2="2427.65">
   <stop offset="0" style="stop-opacity:1; stop-color:#FF3A44"/>
   <stop offset="1" style="stop-opacity:1; stop-color:#C31162"/>
  </linearGradient>
  <linearGradient id="id2" gradientUnits="userSpaceOnUse" x1="2513.11" y1="1168.34" x2="1144.3" y2="1168.34">
   <stop offset="0" style="stop-opacity:1; stop-color:#FFE000"/>
   <stop offset="0.411765" style="stop-opacity:1; stop-color:#FFBD00"/>
   <stop offset="0.780392" style="stop-opacity:1; stop-color:orange"/>
   <stop offset="1" style="stop-opacity:1; stop-color:#FF9C00"/>
  </linearGradient>
  <linearGradient id="id3" gradientUnits="userSpaceOnUse" x1="-1793.03" y1="811.79" x2="-2193.33" y2="1141.14">
   <stop offset="0" style="stop-opacity:1; stop-color:#40B8FF"/>
   <stop offset="0.0117647" style="stop-opacity:1; stop-color:#40B9FF"/>
   <stop offset="0.258824" style="stop-opacity:1; stop-color:#40CEFF"/>
   <stop offset="0.509804" style="stop-opacity:1; stop-color:#40DDFF"/>
   <stop offset="0.760784" style="stop-opacity:1; stop-color:#40E7FF"/>
   <stop offset="1" style="stop-opacity:1; stop-color:#40EAFF"/>
  </linearGradient>
  <linearGradient id="id4" gradientUnits="userSpaceOnUse" x1="-1784.15" y1="1150.09" x2="-2183.91" y2="1498.92">
   <stop offset="0" style="stop-opacity:1; stop-color:#008DE0"/>
   <stop offset="0.0117647" style="stop-opacity:1; stop-color:#008DE0"/>
   <stop offset="0.258824" style="stop-opacity:1; stop-color:#00A7E0"/>
   <stop offset="0.509804" style="stop-opacity:1; stop-color:#00B8E0"/>
   <stop offset="0.760784" style="stop-opacity:1; stop-color:#00C4E0"/>
   <stop offset="1" style="stop-opacity:1; stop-color:#00C7E0"/>
  </linearGradient>
  <linearGradient id="id5" gradientUnits="userSpaceOnUse" x1="2670.08" y1="1204.52" x2="1491.81" y2="1204.52">
   <stop offset="0" style="stop-opacity:1; stop-color:#FFE840"/>
   <stop offset="0.411765" style="stop-opacity:1; stop-color:#FFCE40"/>
   <stop offset="0.780392" style="stop-opacity:1; stop-color:#FFBC40"/>
   <stop offset="1" style="stop-opacity:1; stop-color:#FFB540"/>
  </linearGradient>
  <linearGradient id="id6" gradientUnits="userSpaceOnUse" x1="2670.12" y1="1144.77" x2="1491.85" y2="1144.77">
   <stop offset="0" style="stop-opacity:1; stop-color:#E0C500"/>
   <stop offset="0.411765" style="stop-opacity:1; stop-color:#E0A600"/>
   <stop offset="0.780392" style="stop-opacity:1; stop-color:#E09100"/>
   <stop offset="1" style="stop-opacity:1; stop-color:#E08900"/>
  </linearGradient>
  <linearGradient id="id7" gradientUnits="userSpaceOnUse" x1="202.27" y1="999.61" x2="-405.78" y2="1525.03">
   <stop offset="0" style="stop-opacity:1; stop-color:#00A0FF"/>
   <stop offset="0.0117647" style="stop-opacity:1; stop-color:#00A1FF"/>
   <stop offset="0.258824" style="stop-opacity:1; stop-color:#00BEFF"/>
   <stop offset="0.509804" style="stop-opacity:1; stop-color:#00D2FF"/>
   <stop offset="0.760784" style="stop-opacity:1; stop-color:#00DFFF"/>
   <stop offset="1" style="stop-opacity:1; stop-color:#00E3FF"/>
  </linearGradient>
  <linearGradient id="id8" gradientUnits="userSpaceOnUse" x1="1708.6" y1="5.56" x2="2076.16" y2="325.92">
   <stop offset="0" style="stop-opacity:1; stop-color:#65B895"/>
   <stop offset="0.0705882" style="stop-opacity:1; stop-color:#62BD95"/>
   <stop offset="0.470588" style="stop-opacity:1; stop-color:#50DB97"/>
   <stop offset="0.8" style="stop-opacity:1; stop-color:#44ED98"/>
   <stop offset="1" style="stop-opacity:1; stop-color:#40F498"/>
  </linearGradient>
  <linearGradient id="id9" gradientUnits="userSpaceOnUse" x1="2343.95" y1="1574.82" x2="1518.08" y2="2286.33">
   <stop offset="0" style="stop-opacity:1; stop-color:#CC2E36"/>
   <stop offset="1" style="stop-opacity:1; stop-color:#9C0E4E"/>
  </linearGradient>
 </defs>
 <g id="Слой_x0020_1">
  <metadata id="CorelCorpID_0Corel-Layer"/>
  <g id="_1847755858944">
   <g>
    <path class="fil0" d="M9049.67 2402.17l-8703.7 0c-191.48,0 -348.15,-134.99 -348.15,-299.99l0 -1800c0,-165 156.66,-300 348.15,-300l8703.7 0c191.48,0 348.15,135 348.15,300l0 1800c0,165 -156.67,300 -348.15,300l0 -0.01zm0 0l0 0 0 0z"/>
   </g>
   <g>
    <path class="fil1" d="M3299.55 616.78c0,50.27 -17.28,90.3 -51.88,120.16 -39.3,35.51 -90.52,53.28 -153.48,53.28 -60.3,0 -111.57,-18 -153.73,-54.05 -42.24,-36.02 -63.32,-80.69 -63.32,-133.99 0,-53.32 21.08,-97.97 63.32,-134.02 42.16,-36.02 93.43,-54.05 153.73,-54.05 29.92,0 58.56,5.05 85.76,15.1 27.2,10.08 49.01,23.46 65.33,40.22l-36.72 31.66c-27.66,-28.47 -65.74,-42.7 -114.37,-42.7 -43.98,0 -82.01,13.31 -114.1,39.96 -32.1,26.68 -48.14,61.27 -48.14,103.83 0,42.57 16.04,77.16 48.14,103.83 32.09,26.65 70.12,39.96 114.1,39.96 46.65,0 85.54,-13.38 116.68,-40.19 20.22,-17.47 31.91,-41.75 35.03,-72.92l-151.72 0 0 -43.24 202.45 0c1.96,9.4 2.91,18.42 2.91,27.16l0.01 0zm0 0l0 0 0 0z"/>
   </g>
   <g>
    <path class="fil1" d="M3299.55 616.78l-6.97 0c-0.06,49.12 -16.71,87.28 -49.84,115.92l-0.07 0.05 -0.03 0.05c-38.05,34.28 -86.97,51.34 -148.46,51.42 -58.69,-0.08 -107.81,-17.33 -148.84,-52.29 -40.92,-35.04 -61.16,-77.82 -61.24,-129.75 0.08,-51.96 20.32,-94.71 61.24,-129.73 41.03,-34.99 90.15,-52.26 148.84,-52.34 29.02,0 56.66,4.88 83.01,14.61 26.39,9.8 47.22,22.64 62.75,38.58l5.34 -3.87 -4.93 -4.24 -36.72 31.68 4.92 4.22 5.37 -3.84c-28.95,-29.89 -69.58,-44.95 -119.74,-44.86 -45.61,-0.05 -85.73,13.99 -118.91,41.65 -33.51,27.75 -50.35,64.29 -50.29,108.14 -0.06,43.85 16.78,80.39 50.29,108.14 33.18,27.66 73.3,41.7 118.91,41.65 48.2,0.07 89.27,-14.02 121.61,-41.95 21.6,-18.66 33.84,-44.51 37.05,-76.65l0.65 -6.51 -152.34 0 0 -31.24 195.48 0 0 -6 -6.85 1.05c1.9,9.1 2.8,17.74 2.8,26.11l13.93 0c0,-9.12 -0.99,-18.49 -3.03,-28.24l-1.03 -4.93 -215.23 0.01 0 55.24 158.68 0 0 -6 -6.93 -0.52c-3.07,30.19 -14.22,52.93 -33.02,69.19 -29.91,25.69 -66.64,38.36 -111.76,38.44 -42.34,-0.05 -78.27,-12.62 -109.26,-38.28 -30.68,-25.57 -45.94,-58.21 -46.02,-99.51 0.08,-41.3 15.34,-73.95 46.02,-99.52 30.98,-25.66 66.91,-38.23 109.26,-38.28 47.09,0.1 82.64,13.51 109.05,40.58l4.89 5.01 42.08 -36.3 4.51 -3.89 -4.11 -4.2c-17.1,-17.57 -39.9,-31.52 -67.91,-41.88 -28.07,-10.38 -57.69,-15.59 -88.51,-15.59 -61.9,-0.05 -115.32,18.71 -158.65,55.81 -43.49,37.03 -65.41,83.58 -65.35,138.26 -0.06,54.65 21.86,101.22 65.38,138.28 43.3,37.07 96.72,55.8 158.62,55.76 64.46,0.05 117.94,-18.4 158.52,-55.13l-5.04 -4.15 4.93 4.24c36.06,-31.05 53.96,-73 53.91,-124.4l-6.97 0 0.01 0zm320.94 -150.38l-190.26 0 0 114.15 171.58 0 0 43.26 -171.58 0 0 114.14 190.26 0 0 44.23 -243.89 0 0 -360 243.89 0 0 44.23 0 -0.01zm0 0l0 0 0 0z"/>
   </g>
   <g>
    <path class="fil1" d="M3620.49 466.4l0 -6 -197.22 0 0 126.15 171.57 0 0 31.24 -171.57 0.02 0 126.14 190.26 0 0 32.23 -229.97 0 0 -348 229.97 0 0 38.23 6.96 -0.01 0 -6 0 6 6.96 0 0 -50.22 -257.82 0 0 372 257.82 0 0 -56.23 -190.26 0 0 -102.15 171.58 0.01 0 -55.26 -171.58 0 0 -102.15 190.26 0 0 -6 -6.96 0 0 0zm226.38 315.78l-53.72 0 0 -315.78 -116.69 0 0 -44.23 287.09 0.01 0 44.22 -116.68 0 0 315.77 0 0.01zm0 0l0 0 0 0z"/>
   </g>
   <g>
    <path class="fil1" d="M3846.87 782.18l0 -6 -46.76 0 0 -315.78 -116.68 0 0 -32.22 273.16 0 0 32.22 -116.68 0 0 321.78 6.96 0 0 -6 0 6 6.96 0 0 -309.78 116.69 0 0 -56.22 -301.02 0 0 56.22 116.68 0 0 315.77 67.65 0 0 -6 -6.96 0 0 0.01zm324.4 0l0 -360 53.67 0 0 359.99 -53.67 0 0 0.01zm0 0l0 0 0 0z"/>
   </g>
   <g>
    <path class="fil1" d="M4171.27 782.18l6.97 0 0 -354 39.73 0 0 348 -46.7 0 0 6 6.97 0 -6.97 0 0 6 60.63 0 0 -372 -67.59 0 0 372 6.96 0 0 -6 0 0zm291.79 0l-53.71 0 0 -315.78 -116.68 0 0 -44.23 287.08 0.01 0 44.22 -116.69 0 0 315.77 0 0.01zm0 0l0 0 0 0z"/>
   </g>
   <g>
    <path class="fil1" d="M4463.06 782.18l0 -6 -46.75 0 0 -315.78 -116.68 0 0 -32.22 273.15 0 0 32.22 -116.68 0 0 321.78 6.96 0 0 -6 0 6 6.97 0 0 -309.78 116.68 0 0 -56.22 -301.01 0 0 56.22 116.68 0 0 315.77 67.65 0 0 -6 -6.97 0 0 0.01zm393.47 -76.66c30.92,26.97 68.76,40.45 113.5,40.45 44.74,0 82.6,-13.48 113.47,-40.45 30.95,-26.98 46.46,-61.46 46.46,-103.34 0,-41.88 -15.51,-76.36 -46.46,-103.34 -30.87,-26.97 -68.73,-40.45 -113.47,-40.45 -44.74,0 -82.58,13.48 -113.5,40.45 -30.88,26.98 -46.38,61.46 -46.38,103.34 0,41.88 15.5,76.36 46.38,103.34zm266.68 30.14c-41.07,36.39 -92.15,54.56 -153.18,54.56 -61.09,0 -112.15,-18.17 -153.13,-54.56 -41.1,-36.36 -61.55,-80.86 -61.55,-133.48 0,-52.62 20.45,-97.13 61.55,-133.48 40.99,-36.4 92.04,-54.59 153.13,-54.59 60.71,0 111.65,18.28 152.92,54.83 41.2,36.54 61.82,80.95 61.82,133.24 0,52.62 -20.57,97.12 -61.56,133.48z"/>
   </g>
   <g>
    <path class="fil1" d="M4856.53 705.52l-4.96 4.22c32.07,28.05 72.08,42.3 118.46,42.23 46.34,0.07 86.41,-14.18 118.43,-42.23 32.28,-28.09 48.51,-64.41 48.46,-107.56 0.05,-43.15 -16.18,-79.48 -48.46,-107.56 -32.02,-28.05 -72.08,-42.3 -118.43,-42.23 -46.38,-0.07 -86.39,14.18 -118.46,42.23 -32.2,28.08 -48.47,64.41 -48.38,107.56 -0.09,43.14 16.18,79.47 48.38,107.56l4.96 -4.22 4.95 -4.22c-29.54,-25.9 -44.31,-58.48 -44.37,-99.12 0.06,-40.64 14.83,-73.22 44.37,-99.12 29.8,-25.9 65.41,-38.6 108.55,-38.67 43.1,0.07 78.79,12.77 108.52,38.67 29.6,25.9 44.36,58.48 44.42,99.12 -0.06,40.64 -14.82,73.22 -44.42,99.12 -29.73,25.9 -65.41,38.6 -108.52,38.67 -43.14,-0.07 -78.75,-12.77 -108.55,-38.67l-4.95 4.22zm266.68 30.14l-4.97 -4.17c-39.93,35.25 -88.75,52.66 -148.21,52.73 -59.48,-0.07 -108.31,-17.48 -148.16,-52.73l-0.19 -0.19 0.19 0.19c-39.84,-35.37 -59.5,-78.03 -59.56,-129.31 0.06,-51.29 19.72,-93.94 59.56,-129.31 39.85,-35.25 88.67,-52.68 148.16,-52.75 59.08,0.07 107.79,17.58 147.93,53.01 39.99,35.53 59.76,78.12 59.85,129.05 -0.09,51.29 -19.81,93.94 -59.57,129.31l4.97 4.17 5.01 4.17c42.21,-37.36 63.56,-83.7 63.51,-137.65 0.05,-53.64 -21.38,-99.89 -63.79,-137.41 -42.42,-37.67 -95.57,-56.72 -157.91,-56.65 -62.66,-0.07 -115.97,18.89 -158.13,56.42l0 -0.03c-42.3,37.38 -63.57,83.72 -63.51,137.67 -0.06,53.95 21.21,100.29 63.51,137.67l0.18 0.17 -0.18 -0.2c42.16,37.53 95.47,56.45 158.13,56.4 62.64,0.05 115.95,-18.87 158.2,-56.4l-5.01 -4.16 -0.01 0zm136.9 46.52l0 -360 65.33 0 203.04 280.05 2.31 0 -2.31 -69.38 0 -210.67 53.72 0 0 359.99 -56.03 0 -212.43 -293.62 -2.31 0 2.31 69.4 0 224.23 -53.63 -0.01 0 0.01zm0 0l0 0 0 0z"/>
   </g>
   <g>
    <path class="fil1" d="M5260.11 782.18l6.96 0 0 -354 54.51 0 203.04 280.06 13.32 -0.01 -2.5 -75.46 0 -204.59 39.8 0 0 348 -45.21 0 -212.42 -293.63 -13.33 0 2.5 75.5 0 218.13 -46.67 0 0 6 6.96 0 -6.96 0 0 6 60.6 0 0 -230.32 -2.31 -69.47 -6.97 0.16 0 6 2.31 0 0 -6 -5.9 3.19 214.47 296.44 66.85 0 0 -372 -67.64 0 0 216.75 2.31 69.46 6.96 -0.16 0 -6 -2.31 0 0 6 5.9 -3.18 -205.08 -282.87 -76.15 0 0 372 6.96 0 0 -6 0 0zm2183.63 1020l129.92 0 0 -750.08 -129.93 0.01 0.01 750.07zm1170.26 -479.88l-148.94 325.19 -4.45 0 -154.58 -325.19 -139.96 0 231.8 454.51 -132.16 252.83 135.57 0 357.2 -707.34 -144.48 0zm-736.82 394.69c-42.61,0 -101.94,-18.34 -101.94,-63.71 0,-57.89 73.95,-80.09 137.73,-80.09 57.17,0 83.97,10.62 118.72,25.11 -10.1,69.46 -79.52,118.69 -154.51,118.69zm15.66 -411.1c-94.07,0 -191.48,35.71 -231.79,114.84l115.3 41.49c24.65,-41.49 70.54,-55.01 118.72,-55.01 67.19,0 135.5,34.76 136.61,96.52l0 7.71c-23.53,-11.59 -73.87,-28.95 -135.49,-28.95 -124.29,0 -250.88,58.85 -250.88,168.87 0,100.36 101.94,165.02 216.13,165.02 87.39,0 135.5,-33.77 165.79,-73.33l4.46 0 0 57.89 125.4 0 0 -287.59c0,-133.14 -115.31,-207.46 -264.25,-207.46zm-802.96 107.72l-184.8 0 0 -257.11 184.8 0c97.13,0 152.28,69.3 152.28,128.55 0,58.13 -55.15,128.56 -152.28,128.56zm-3.34 -361.5l-311.32 0 0 750.07 129.86 0 0 -284.18 181.46 0c143.99,0 285.54,-89.84 285.54,-232.95 0,-143.11 -141.55,-232.95 -285.54,-232.95l0 0.01zm-1697.65 665.01c-89.75,0 -164.91,-64.76 -164.91,-153.7 0,-89.88 75.15,-155.62 164.91,-155.62 88.62,0 158.17,65.74 158.17,155.62 0,88.94 -69.55,153.7 -158.16,153.7l-0.01 0zm149.19 -352.82l-4.49 0c-29.15,-29.96 -85.27,-57.03 -155.93,-57.03 -148.08,0 -283.8,112.13 -283.8,256.15 0,143.07 135.72,254.22 283.8,254.22 70.66,0 126.77,-27.07 155.93,-57.98l4.49 0 0 36.73c0,97.64 -60.57,149.83 -158.16,149.83 -79.64,0 -129.01,-49.31 -149.22,-90.87l-113.28 40.6c32.53,67.66 118.91,150.8 262.5,150.8 152.55,0 281.56,-77.35 281.56,-265.84l0 -458.17 -123.4 0 0 41.56zm213.13 437.88l130.13 0 0 -750.1 -130.13 0 0 750.1zm321.96 -247.46c-3.37,-98.6 88.61,-148.85 154.79,-148.85 51.64,0 95.36,22.22 109.92,54.15l-264.71 94.7zm403.83 -85.05c-24.65,-57.05 -99.86,-162.4 -253.53,-162.4 -152.56,0 -279.31,103.43 -279.31,255.19 0,143.07 125.64,255.18 293.89,255.18 135.75,0 214.3,-71.53 246.82,-113.09l-100.97 -58c-33.63,42.54 -79.66,70.57 -145.85,70.57 -66.18,0 -113.28,-26.11 -143.59,-77.32l395.97 -141.14 -13.43 -28.99zm-3154.8 -84.1l0 108.26 300.63 0c-8.98,60.89 -32.53,105.36 -68.43,136.29 -43.74,37.71 -112.17,79.27 -232.2,79.27 -185.09,0 -329.79,-128.56 -329.79,-288.05 0,-159.49 144.7,-288.07 329.8,-288.07 99.84,0 172.73,33.84 226.58,77.34l88.62 -76.36c-75.15,-61.87 -175,-109.23 -315.2,-109.23 -253.53,0 -466.66,177.86 -466.66,396.32 0,218.46 213.13,396.3 466.66,396.3 136.86,0 240.05,-38.64 320.81,-111.16 83.01,-71.53 108.82,-172.05 108.82,-253.24 0,-25.15 -2.23,-48.33 -6.75,-67.67l-422.89 0zm771.42 331.55c-89.76,0 -167.17,-63.8 -167.17,-154.66 0,-91.83 77.41,-154.66 167.17,-154.66 89.72,0 167.13,62.83 167.13,154.66 0,90.86 -77.41,154.66 -167.13,154.66zm0 -409.85c-163.8,0 -297.29,107.29 -297.29,255.19 0,146.93 133.49,255.18 297.29,255.18 163.76,0 297.26,-108.25 297.26,-255.18 0,-147.89 -133.5,-255.19 -297.26,-255.19zm648.47 409.85c-89.72,0 -167.14,-63.8 -167.14,-154.66 0,-91.83 77.42,-154.66 167.15,-154.66 89.73,0 167.14,62.83 167.14,154.66 0,90.86 -77.41,154.66 -167.14,154.66l-0.01 0zm0 -409.85c-163.78,0 -297.25,107.29 -297.25,255.19 0,146.93 133.47,255.18 297.26,255.18 163.76,0 297.26,-108.25 297.26,-255.18 0,-147.89 -133.5,-255.19 -297.26,-255.19l-0.01 0z"/>
   </g>
   <path class="fil2" d="M729.53 458.86c-23.37,18.16 -37.32,48.47 -37.32,88.69l0 -9.1 0 1327.27 0 -8.74c0,37.14 11.97,65.83 32.23,84.3l5.17 4.27 0 0.02c16.4,12.75 37.43,19.52 61.53,19.5 23.55,0 50.04,-6.47 78,-20.13l1010.69 -494.83 347.17 -169.99c44.09,-21.59 68.84,-49.43 72.98,-77.79l0 -0.12c-4.14,-28.43 -28.89,-56.25 -72.98,-77.84l-347.19 -169.97 -1010.67 -494.84c-28.02,-13.69 -54.53,-20.18 -78.14,-20.18 -24.07,0 -45.08,6.75 -61.47,19.47l0 0.01z"/>
   <path class="fil3" d="M729.61 1945.55l-5.17 -4.27c-20.26,-18.47 -32.23,-47.16 -32.23,-84.31l0 8.75 0 -1326.94 0 8.77c0,-40.22 13.95,-70.52 37.32,-88.69l862.7 743.37 -862.62 743.32z"/>
   <path class="fil4" d="M1879.83 1450.1l-287.6 -247.87 287.58 -247.84 347.19 169.97c44.09,21.59 68.84,49.41 72.98,77.84l0 0.12c-4.14,28.36 -28.89,56.21 -72.98,77.79l-347.17 169.98m0 0.01l0 0 0 0z"/>
   <path class="fil5" d="M791.14 1965.07c-24.1,0.01 -45.13,-6.76 -61.52,-19.51l0 -0.02 862.61 -743.32 287.6 247.87 -1010.69 494.84c-27.96,13.67 -54.45,20.14 -78,20.14z"/>
   <path class="fil6" d="M1592.23 1202.23l-862.71 -743.37c16.4,-12.73 37.4,-19.48 61.47,-19.48 23.62,0 50.13,6.49 78.15,20.18l1010.66 494.84 -287.58 247.83m0.01 0l0 0 0 0z"/>
   <path class="fil7" d="M791.16 1973.85c-24.09,0 -45.15,-6.77 -61.55,-19.52l-0.03 0.02c-1.05,-0.05 -1.88,-0.8 -1.88,-1.71 0,-0.95 0.89,-1.71 1.99,-1.71 1.09,0 1.99,0.76 1.99,1.71 0,0.91 -0.84,1.66 -1.9,1.71l-4.9 -3.93c-0.14,-0.12 -0.27,-0.26 -0.44,-0.4l5.18 -4.45c16.4,12.74 37.42,19.52 61.52,19.5 23.55,0 50.05,-6.47 78.01,-20.13l1010.69 -494.84 6.47 5.58 -6.56 3.21 -1010.61 494.81c-25.48,12.44 -49.72,18.93 -71.61,20.02 -0.01,-0.01 -0.06,-0.01 -0.07,-0.01 -0.02,0 -0.07,0 -0.08,0m-6.22 0.14l0 0 0 0z"/>
   <path class="fil8" d="M724.44 1950.02c-20.26,-18.47 -32.23,-47.13 -32.23,-84.3l0 -8.75c0,37.15 11.97,65.83 32.23,84.31l5.17 4.27 -5.17 4.47m0 0l0 0 0 0z"/>
   <path class="fil9" d="M1886.31 1455.68l-6.48 -5.59 347.16 -169.98c44.1,-21.58 68.85,-49.43 72.98,-77.79 0,10.4 -2.69,20.81 -8.04,30.94 -10.8,20.41 -32.45,39.7 -64.93,55.61l-340.69 166.81z"/>
   <path class="fil10" d="M2299.98 1202.2c-4.14,-28.43 -28.89,-56.25 -72.98,-77.84l-347.2 -169.96 6.48 -5.58 0.03 0 340.69 166.8c48.61,23.82 72.95,55.2 72.98,86.58z"/>
   <path class="fil11" d="M692.21 547.55l0 -9.17c0,-3.31 0.11,-6.54 0.3,-9.68l0 -0.14c0,-0.05 0,-0.09 0.02,-0.14l0 -0.36c2.1,-31.99 13.63,-56.95 31.91,-73.61l5.09 4.4c-23.37,18.17 -37.32,48.47 -37.32,88.7z"/>
   <path class="fil12" d="M1879.8 954.4l-1010.66 -494.84c-28.01,-13.69 -54.53,-20.18 -78.14,-20.18 -24.07,0 -45.07,6.75 -61.47,19.48l-5.09 -4.41c0.05,-0.05 0.14,-0.1 0.19,-0.14 16.27,-12.63 37.05,-19.38 60.9,-19.5l0.52 0c23.61,0 50.12,6.49 78.14,20.18l1022.12 493.81 -0.03 0.02 -6.47 5.58m-0.01 0l0 0 0 0z"/>
  </g>
 </g>
</svg>
